<svg width="174" height="46" xmlns="http://www.w3.org/2000/svg">
    <g fill="none" fill-rule="evenodd">
        <path d="M45.68 20.16c.593 0 1.093-.088 1.5-.265.407-.177.71-.417.91-.72.2-.303.3-.638.3-1.005 0-.44-.115-.79-.345-1.05a2.138 2.138 0 0 0-.825-.58 9.775 9.775 0 0 0-1.27-.38 9.296 9.296 0 0 1-.965-.265 1.665 1.665 0 0 1-.595-.35.765.765 0 0 1-.24-.585c0-.327.142-.593.425-.8.283-.207.708-.31 1.275-.31.32 0 .647.048.98.145.333.097.647.238.94.425l.33-.8c-.287-.2-.63-.353-1.03-.46-.4-.107-.807-.16-1.22-.16-.593 0-1.09.09-1.49.27-.4.18-.698.42-.895.72-.197.3-.295.637-.295 1.01 0 .447.115.802.345 1.065.23.263.507.458.83.585.323.127.748.253 1.275.38.42.1.745.19.975.27.23.08.423.195.58.345.157.15.235.345.235.585 0 .327-.143.588-.43.785-.287.197-.72.295-1.3.295-.44 0-.868-.075-1.285-.225a3.064 3.064 0 0 1-1.025-.585l-.37.78c.28.26.665.472 1.155.635.49.163.998.245 1.525.245zm5.17-.08v-7h-1v7h1zm4.14.08c.593 0 1.093-.088 1.5-.265.407-.177.71-.417.91-.72.2-.303.3-.638.3-1.005 0-.44-.115-.79-.345-1.05a2.138 2.138 0 0 0-.825-.58 9.775 9.775 0 0 0-1.27-.38 9.296 9.296 0 0 1-.965-.265 1.665 1.665 0 0 1-.595-.35.765.765 0 0 1-.24-.585c0-.327.142-.593.425-.8.283-.207.708-.31 1.275-.31.32 0 .647.048.98.145.333.097.647.238.94.425l.33-.8c-.287-.2-.63-.353-1.03-.46-.4-.107-.807-.16-1.22-.16-.593 0-1.09.09-1.49.27-.4.18-.698.42-.895.72-.197.3-.295.637-.295 1.01 0 .447.115.802.345 1.065.23.263.507.458.83.585.323.127.748.253 1.275.38.42.1.745.19.975.27.23.08.423.195.58.345.157.15.235.345.235.585 0 .327-.143.588-.43.785-.287.197-.72.295-1.3.295-.44 0-.868-.075-1.285-.225a3.064 3.064 0 0 1-1.025-.585l-.37.78c.28.26.665.472 1.155.635.49.163.998.245 1.525.245zm6.55-.08v-6.13h2.4v-.87h-5.79v.87h2.4v6.13h.99zm8.57 0v-.87h-4.08v-2.26h3.51v-.85h-3.51v-2.15h3.94v-.87h-4.94v7h5.08zm2.58 0v-5.07l2.53 4.22h.46l2.53-4.25.01 5.1h.96l-.01-7h-.82L75.47 18l-2.92-4.92h-.82v7h.96zm8.56 0 .77-1.75h3.72l.77 1.75h1.05l-3.18-7h-.99l-3.17 7h1.03zm4.14-2.55h-3.02l1.51-3.43 1.51 3.43zm8.85 2.55c.74 0 1.397-.147 1.97-.44a3.233 3.233 0 0 0 1.335-1.235c.317-.53.475-1.138.475-1.825s-.158-1.295-.475-1.825a3.233 3.233 0 0 0-1.335-1.235c-.573-.293-1.23-.44-1.97-.44h-2.95v7h2.95zm-.06-.87h-1.89v-5.26h1.89c.567 0 1.065.11 1.495.33.43.22.762.528.995.925.233.397.35.855.35 1.375s-.117.978-.35 1.375a2.386 2.386 0 0 1-.995.925c-.43.22-.928.33-1.495.33zm10.45.87v-.87h-4.08v-2.26h3.51v-.85h-3.51v-2.15h3.94v-.87h-4.94v7h5.08zm4.28 0 .77-1.75h3.72l.77 1.75h1.05l-3.18-7h-.99l-3.17 7h1.03zm4.14-2.55h-3.02l1.51-3.43 1.51 3.43zm4.21 2.55v-2.12h1.73c.907 0 1.62-.217 2.14-.65.52-.433.78-1.03.78-1.79s-.26-1.357-.78-1.79c-.52-.433-1.233-.65-2.14-.65h-2.73v7h1zm1.7-2.99h-1.7v-3.14h1.7c.633 0 1.117.135 1.45.405.333.27.5.658.5 1.165s-.167.895-.5 1.165c-.333.27-.817.405-1.45.405zm7.68 3.07c.7 0 1.333-.155 1.9-.465a3.412 3.412 0 0 0 1.33-1.28c.32-.543.48-1.155.48-1.835 0-.68-.16-1.292-.48-1.835a3.412 3.412 0 0 0-1.33-1.28 3.893 3.893 0 0 0-1.9-.465c-.707 0-1.343.155-1.91.465a3.437 3.437 0 0 0-1.335 1.285 3.527 3.527 0 0 0-.485 1.83c0 .673.162 1.283.485 1.83.323.547.768.975 1.335 1.285.567.31 1.203.465 1.91.465zm0-.89c-.513 0-.978-.117-1.395-.35a2.548 2.548 0 0 1-.98-.965 2.7 2.7 0 0 1-.355-1.375 2.7 2.7 0 0 1 .355-1.375c.237-.41.563-.732.98-.965.417-.233.882-.35 1.395-.35s.975.117 1.385.35c.41.233.733.555.97.965a2.7 2.7 0 0 1 .355 1.375 2.7 2.7 0 0 1-.355 1.375c-.237.41-.56.732-.97.965a2.75 2.75 0 0 1-1.385.35zm7.92.81v-2.42l2.78-4.58h-.99l-2.25 3.69-2.24-3.69h-1.07l2.78 4.56v2.44h.99zm6.95.08c.7 0 1.333-.155 1.9-.465a3.412 3.412 0 0 0 1.33-1.28c.32-.543.48-1.155.48-1.835 0-.68-.16-1.292-.48-1.835a3.412 3.412 0 0 0-1.33-1.28 3.893 3.893 0 0 0-1.9-.465c-.707 0-1.343.155-1.91.465a3.437 3.437 0 0 0-1.335 1.285 3.527 3.527 0 0 0-.485 1.83c0 .673.162 1.283.485 1.83.323.547.768.975 1.335 1.285.567.31 1.203.465 1.91.465zm0-.89c-.513 0-.978-.117-1.395-.35a2.548 2.548 0 0 1-.98-.965 2.7 2.7 0 0 1-.355-1.375 2.7 2.7 0 0 1 .355-1.375c.237-.41.563-.732.98-.965.417-.233.882-.35 1.395-.35s.975.117 1.385.35c.41.233.733.555.97.965a2.7 2.7 0 0 1 .355 1.375 2.7 2.7 0 0 1-.355 1.375c-.237.41-.56.732-.97.965a2.75 2.75 0 0 1-1.385.35zm7.9.81.77-1.75h3.72l.77 1.75h1.05l-3.18-7h-.99l-3.17 7h1.03zm4.14-2.55h-3.02l1.51-3.43 1.51 3.43zm8 2.55v-.87h-3.79v-6.13h-1v7h4.79zm-116.265 14v-2.123h1.551c.682 0 1.274-.112 1.776-.335.503-.224.89-.547 1.161-.968.271-.422.407-.915.407-1.48 0-.572-.136-1.067-.407-1.485-.271-.418-.658-.74-1.16-.968-.503-.227-1.095-.341-1.777-.341h-3.333v7.7h1.782zm1.452-3.575h-1.452v-2.673h1.452c.535 0 .942.116 1.221.346.279.232.418.563.418.996 0 .425-.14.753-.418.985-.279.23-.686.346-1.221.346zm6.6 3.575v-2.145h1.639l1.485 2.145h1.914l-1.727-2.475c.506-.22.896-.537 1.171-.951.275-.415.413-.908.413-1.48s-.136-1.067-.407-1.485c-.271-.418-.658-.74-1.16-.968-.503-.227-1.095-.341-1.777-.341h-3.333v7.7h1.782zm1.452-3.564h-1.452v-2.684h1.452c.535 0 .942.116 1.221.346.279.232.418.563.418.996 0 .425-.14.755-.418.99-.279.235-.686.352-1.221.352zm8.58 3.696c.8 0 1.518-.172 2.156-.517a3.887 3.887 0 0 0 1.507-1.425 3.86 3.86 0 0 0 .55-2.04 3.86 3.86 0 0 0-.55-2.04 3.887 3.887 0 0 0-1.507-1.425c-.638-.345-1.357-.517-2.156-.517-.8 0-1.52.172-2.161.517a3.837 3.837 0 0 0-1.508 1.424 3.889 3.889 0 0 0-.544 2.041c0 .755.181 1.436.544 2.04.363.605.866 1.08 1.508 1.425.641.345 1.362.517 2.161.517zm0-1.518c-.455 0-.865-.105-1.232-.314a2.25 2.25 0 0 1-.864-.874 2.57 2.57 0 0 1-.313-1.276c0-.477.105-.902.313-1.276a2.25 2.25 0 0 1 .864-.875 2.443 2.443 0 0 1 1.232-.313c.455 0 .865.105 1.232.314.367.209.654.5.864.874.209.374.313.8.313 1.276 0 .477-.105.902-.314 1.276a2.25 2.25 0 0 1-.863.874 2.443 2.443 0 0 1-1.232.314zm9.24 1.518c.667 0 1.272-.117 1.815-.352a3.566 3.566 0 0 0 1.364-1.023l-1.144-1.056c-.52.609-1.166.913-1.936.913a2.57 2.57 0 0 1-1.276-.314 2.229 2.229 0 0 1-.874-.874 2.57 2.57 0 0 1-.314-1.276c0-.477.105-.902.314-1.276.208-.374.5-.666.874-.875a2.57 2.57 0 0 1 1.276-.313c.77 0 1.415.3 1.936.902l1.144-1.056A3.624 3.624 0 0 0 74.43 26.6c-.54-.235-1.143-.352-1.81-.352-.792 0-1.505.17-2.14.511a3.817 3.817 0 0 0-1.496 1.42c-.362.605-.544 1.288-.544 2.051 0 .763.181 1.447.544 2.052a3.817 3.817 0 0 0 1.497 1.419c.634.34 1.343.511 2.128.511zm10.34-.132v-1.43h-4.191v-1.782h3.575v-1.386h-3.575V27.81h4.048v-1.43h-5.819v7.7h5.962zm3.949.132c.704 0 1.302-.106 1.793-.319.491-.213.86-.5 1.105-.864.246-.363.369-.764.369-1.204 0-.513-.134-.92-.402-1.221-.267-.3-.588-.52-.962-.66s-.854-.279-1.441-.418c-.565-.125-.984-.251-1.26-.38-.274-.128-.412-.324-.412-.588 0-.264.12-.477.358-.638.238-.161.606-.242 1.105-.242.711 0 1.423.202 2.134.605l.55-1.353a4.257 4.257 0 0 0-1.232-.506 5.919 5.919 0 0 0-1.441-.176c-.704 0-1.3.106-1.788.319-.487.213-.852.5-1.094.863a2.143 2.143 0 0 0-.363 1.216c0 .513.134.924.401 1.232.268.308.589.532.963.671.374.14.854.279 1.441.418.381.088.684.169.907.242.224.073.407.17.55.291a.573.573 0 0 1 .215.457c0 .25-.121.45-.363.6-.242.15-.616.225-1.122.225a4.42 4.42 0 0 1-1.364-.22 4.105 4.105 0 0 1-1.177-.583l-.605 1.342c.345.264.801.478 1.37.644a6.3 6.3 0 0 0 1.765.247zm8.217 0c.8 0 1.518-.172 2.156-.517a3.887 3.887 0 0 0 1.507-1.425 3.86 3.86 0 0 0 .55-2.04 3.86 3.86 0 0 0-.55-2.04 3.887 3.887 0 0 0-1.507-1.425c-.638-.345-1.357-.517-2.156-.517-.8 0-1.52.172-2.161.517a3.837 3.837 0 0 0-1.507 1.424 3.889 3.889 0 0 0-.545 2.041c0 .755.181 1.436.544 2.04.364.605.866 1.08 1.508 1.425.641.345 1.362.517 2.161.517zm0-1.518c-.455 0-.865-.105-1.232-.314a2.25 2.25 0 0 1-.864-.874 2.57 2.57 0 0 1-.313-1.276c0-.477.105-.902.313-1.276a2.25 2.25 0 0 1 .864-.875 2.443 2.443 0 0 1 1.232-.313c.455 0 .865.105 1.232.314.367.209.654.5.864.874.209.374.313.8.313 1.276 0 .477-.105.902-.314 1.276a2.25 2.25 0 0 1-.863.874 2.443 2.443 0 0 1-1.232.314zm10.45 1.386v-7.7h-1.782v7.7h1.782zm3.586 0v-4.675l3.839 4.675h1.463v-7.7h-1.76v4.675l-3.828-4.675h-1.474v7.7h1.76zm9.658.132c.704 0 1.302-.106 1.793-.319.491-.213.86-.5 1.105-.864.246-.363.369-.764.369-1.204 0-.513-.134-.92-.401-1.221-.268-.3-.589-.52-.963-.66s-.854-.279-1.441-.418c-.565-.125-.984-.251-1.26-.38-.274-.128-.412-.324-.412-.588 0-.264.12-.477.358-.638.238-.161.606-.242 1.105-.242.711 0 1.423.202 2.134.605l.55-1.353a4.257 4.257 0 0 0-1.232-.506 5.919 5.919 0 0 0-1.441-.176c-.704 0-1.3.106-1.787.319-.488.213-.853.5-1.095.863a2.143 2.143 0 0 0-.363 1.216c0 .513.134.924.401 1.232.268.308.589.532.963.671.374.14.854.279 1.441.418.381.088.684.169.907.242.224.073.407.17.55.291a.573.573 0 0 1 .215.457c0 .25-.121.45-.363.6-.242.15-.616.225-1.122.225a4.42 4.42 0 0 1-1.364-.22 4.105 4.105 0 0 1-1.177-.583l-.605 1.342c.345.264.801.478 1.37.644a6.3 6.3 0 0 0 1.765.247zm6.27-.132v-2.123h1.551c.682 0 1.274-.112 1.776-.335.503-.224.89-.547 1.161-.968.271-.422.407-.915.407-1.48 0-.572-.136-1.067-.407-1.485-.271-.418-.658-.74-1.16-.968-.503-.227-1.095-.341-1.777-.341h-3.333v7.7h1.782zm1.452-3.575h-1.452v-2.673h1.452c.535 0 .942.116 1.221.346.279.232.418.563.418.996 0 .425-.14.753-.418.985-.279.23-.686.346-1.221.346zm10.78 3.575v-1.43h-4.191v-1.782h3.575v-1.386h-3.575V27.81h4.048v-1.43h-5.819v7.7h5.962zm5.104.132c.667 0 1.272-.117 1.815-.352a3.566 3.566 0 0 0 1.364-1.023l-1.144-1.056c-.52.609-1.166.913-1.936.913a2.57 2.57 0 0 1-1.276-.314 2.229 2.229 0 0 1-.875-.874 2.57 2.57 0 0 1-.313-1.276c0-.477.105-.902.313-1.276.21-.374.501-.666.875-.875a2.57 2.57 0 0 1 1.276-.313c.77 0 1.415.3 1.936.902l1.144-1.056a3.624 3.624 0 0 0-1.358-1.012c-.54-.235-1.143-.352-1.81-.352-.792 0-1.505.17-2.14.511a3.817 3.817 0 0 0-1.495 1.42c-.363.605-.545 1.288-.545 2.051 0 .763.181 1.447.544 2.052a3.817 3.817 0 0 0 1.496 1.419c.635.34 1.344.511 2.129.511zm7.755-.132v-6.248h2.464V26.38h-6.71v1.452h2.464v6.248h1.782zm5.203 0v-7.7h-1.782v7.7h1.782zm5.896 0 3.333-7.7h-1.771l-2.376 5.5-2.343-5.5h-1.925l3.322 7.7h1.76zm7.865.132c.8 0 1.518-.172 2.156-.517a3.887 3.887 0 0 0 1.507-1.425 3.86 3.86 0 0 0 .55-2.04 3.86 3.86 0 0 0-.55-2.04 3.887 3.887 0 0 0-1.507-1.425c-.638-.345-1.357-.517-2.156-.517-.8 0-1.52.172-2.161.517a3.837 3.837 0 0 0-1.508 1.424 3.889 3.889 0 0 0-.544 2.041c0 .755.181 1.436.544 2.04.363.605.866 1.08 1.507 1.425.642.345 1.363.517 2.162.517zm0-1.518c-.455 0-.865-.105-1.232-.314a2.25 2.25 0 0 1-.863-.874 2.57 2.57 0 0 1-.314-1.276c0-.477.105-.902.314-1.276a2.25 2.25 0 0 1 .863-.875 2.443 2.443 0 0 1 1.232-.313c.455 0 .865.105 1.232.314.367.209.654.5.863.874.21.374.314.8.314 1.276 0 .477-.105.902-.314 1.276a2.25 2.25 0 0 1-.863.874 2.443 2.443 0 0 1-1.232.314z" fill="#235b4e" fill-rule="nonzero"/>
        <g transform="matrix(-1 0 0 1 38.034 2)">
            <ellipse fill-opacity=".5" fill="#235b4e" cx="22.558" cy="22.767" rx="5.034" ry="5.05"/>
            <ellipse stroke="#235b4e" stroke-width="2" cx="22.558" cy="22.767" rx="8.054" ry="8.08"/>
            <path d="M34.638 22.767c0-6.693-5.408-12.12-12.08-12.12s-12.08 5.427-12.08 12.12 5.408 12.12 12.08 12.12" stroke-opacity=".5" stroke="#235b4e" stroke-width="2" stroke-linecap="round"/>
            <path d="M35.661 13.203c-5.102-7.31-15.146-9.087-22.433-3.968C5.941 14.353 4.17 24.429 9.273 31.74" stroke-opacity=".5" stroke="#235b4e" stroke-width="2" stroke-linecap="round"/>
            <path d="M22.558 2.568c-11.12 0-20.134 9.043-20.134 20.199 0 11.156 9.014 20.199 20.134 20.199" stroke-opacity=".5" stroke="#235b4e" stroke-width="2" stroke-linecap="round"/>
            <path stroke="#235b4e" stroke-width="2" stroke-linecap="round" d="m28.477 29.058 8.175 8.353"/>
        </g>
    </g>
</svg>
